<?xml version="1.0" standalone="no"?>
<!DOCTYPE svg PUBLIC "-//W3C//DTD SVG 20010904//EN"
 "http://www.w3.org/TR/2001/REC-SVG-20010904/DTD/svg10.dtd">
<svg version="1.0" xmlns="http://www.w3.org/2000/svg"
 width="700.000000pt" height="700.000000pt" viewBox="0 0 700.000000 700.000000"
 preserveAspectRatio="xMidYMid meet">
<metadata>
Created by potrace 1.11, written by Peter Selinger 2001-2013
</metadata>
<g transform="translate(0.000000,700.000000) scale(0.100000,-0.100000)"
fill="#000000" stroke="none">
<path d="M3216 6609 c-602 -53 -1184 -287 -1666 -670 -138 -109 -386 -357
-490 -489 -379 -481 -602 -1028 -666 -1630 -22 -207 -14 -555 16 -755 53 -348
135 -614 290 -930 154 -316 344 -580 600 -835 850 -849 2115 -1131 3245 -725
163 58 437 191 581 280 540 337 962 822 1219 1400 197 444 288 953 257 1430
-37 569 -203 1069 -507 1530 -527 799 -1380 1309 -2335 1395 -130 11 -411 11
-544 -1z m1396 -999 c204 -30 358 -146 458 -348 59 -121 100 -307 100 -462 l0
-84 54 -56 c140 -142 178 -263 192 -626 l7 -164 -200 0 -201 0 -6 78 c-3 42
-8 129 -12 192 -3 63 -10 131 -15 150 -20 80 -146 157 -311 190 -169 34 -290
40 -863 40 l-562 0 -110 -147 c-182 -244 -369 -542 -479 -764 l-37 -77 32 -40
c56 -72 75 -127 76 -222 0 -73 -4 -93 -28 -142 -54 -110 -157 -185 -268 -195
l-58 -6 -20 -66 c-30 -95 -86 -349 -79 -356 17 -18 331 -24 1212 -25 988 -2
1072 1 1253 35 138 26 214 76 252 164 19 45 38 184 43 329 l3 62 -847 0 -848
0 0 205 0 205 1055 0 1055 0 0 -177 c0 -275 -26 -567 -61 -695 -66 -238 -230
-404 -459 -467 -153 -42 -479 -70 -832 -71 l-116 0 -119 -121 c-267 -274 -474
-434 -720 -558 -380 -190 -708 -172 -921 53 -139 147 -206 340 -218 636 -12
267 32 552 143 920 2 9 -10 34 -28 55 -55 69 -72 120 -73 215 0 72 4 94 26
143 52 111 173 197 278 197 l40 0 55 109 c164 327 397 685 629 966 120 145
409 436 526 529 259 206 535 349 745 385 131 23 164 24 257 11z m-1705 -813
c-50 -62 -118 -149 -150 -193 l-59 -81 -140 -7 c-155 -7 -337 -29 -439 -52
-128 -29 -222 -109 -254 -217 -46 -153 -71 -537 -61 -957 8 -366 25 -501 71
-575 10 -16 10 -36 -1 -100 -8 -44 -17 -155 -20 -247 l-7 -167 -71 37 c-193
101 -297 306 -352 692 -22 158 -33 966 -15 1119 35 296 108 477 247 618 59 59
89 80 175 121 123 59 196 78 355 92 124 11 479 26 691 28 l123 2 -93 -113z"/>
<path d="M4395 5370 c-191 -40 -436 -175 -660 -362 l-100 -83 475 -6 c368 -5
497 -10 573 -22 92 -16 196 -39 233 -54 15 -5 16 1 9 58 -26 224 -116 384
-253 447 -46 21 -74 27 -147 28 -49 2 -108 -1 -130 -6z"/>
<path d="M2250 2044 c0 -90 35 -240 74 -319 49 -98 95 -148 173 -187 90 -44
209 -51 334 -19 214 56 491 231 759 480 l75 70 -470 1 c-444 1 -791 11 -897
26 l-48 7 0 -59z"/>
</g>
</svg>
