<svg width="381" height="48" viewBox="0 0 381 48" fill="none" xmlns="http://www.w3.org/2000/svg">
<path d="M30.4749 18.12H33.0189L37.1469 6.048L41.2749 18.12H43.8189L49.6749 1.2H46.5789L42.5709 13.656L38.4429 1.152H35.9469L31.8189 13.656L27.8109 1.2H24.6189L30.4749 18.12ZM55.8239 18H68.3999V15.36H58.7759V10.848H67.1999V8.208H58.7759V3.84H68.2799V1.2H55.8239V18ZM83.8974 18H86.9214L88.6494 13.944H96.5934L98.2974 18H101.417L94.0254 1.08H91.2894L83.8974 18ZM89.7294 11.328L92.6094 4.608L95.5134 11.328H89.7294ZM107.418 18H110.37V12.144H114.066L118.194 18H121.674L117.138 11.64C119.49 10.968 121.146 9.312 121.146 6.552V6.504C121.146 5.04 120.642 3.792 119.754 2.88C118.674 1.824 117.018 1.2 114.906 1.2H107.418V18ZM110.37 9.528V3.888H114.666C116.85 3.888 118.146 4.872 118.146 6.672V6.72C118.146 8.424 116.802 9.528 114.69 9.528H110.37ZM127.882 18H140.458V15.36H130.834V10.848H139.258V8.208H130.834V3.84H140.338V1.2H127.882V18ZM164.283 18.264C168.675 18.264 171.507 15.744 171.507 10.728V1.2H168.555V10.872C168.555 13.968 166.947 15.552 164.331 15.552C161.691 15.552 160.083 13.872 160.083 10.752V1.2H157.131V10.872C157.131 15.744 159.915 18.264 164.283 18.264ZM178.68 18H181.584V6.048L190.848 18H193.32V1.2H190.416V12.816L181.416 1.2H178.68V18ZM200.76 18H207.024C212.304 18 215.952 14.328 215.952 9.6V9.552C215.952 4.824 212.304 1.2 207.024 1.2H200.76V18ZM203.712 15.312V3.888H207.024C210.552 3.888 212.856 6.312 212.856 9.6V9.648C212.856 12.936 210.552 15.312 207.024 15.312H203.712ZM222.654 18H235.23V15.36H225.606V10.848H234.03V8.208H225.606V3.84H235.11V1.2H222.654V18ZM241.852 18H244.804V12.144H248.5L252.628 18H256.108L251.572 11.64C253.924 10.968 255.58 9.312 255.58 6.552V6.504C255.58 5.04 255.076 3.792 254.188 2.88C253.108 1.824 251.452 1.2 249.34 1.2H241.852V18ZM244.804 9.528V3.888H249.1C251.284 3.888 252.58 4.872 252.58 6.672V6.72C252.58 8.424 251.236 9.528 249.124 9.528H244.804ZM270.284 18.288C273.26 18.288 275.636 17.088 277.292 15.672V8.616H270.14V11.184H274.436V14.328C273.404 15.096 271.964 15.6 270.38 15.6C266.948 15.6 264.668 13.056 264.668 9.6V9.552C264.668 6.336 267.02 3.624 270.116 3.624C272.252 3.624 273.524 4.32 274.82 5.424L276.692 3.192C274.964 1.728 273.164 0.912 270.236 0.912C265.172 0.912 261.572 4.896 261.572 9.6V9.648C261.572 14.544 265.028 18.288 270.284 18.288ZM292.272 18.288C297.432 18.288 301.08 14.328 301.08 9.6V9.552C301.08 4.824 297.48 0.912 292.32 0.912C287.16 0.912 283.512 4.872 283.512 9.6V9.648C283.512 14.376 287.112 18.288 292.272 18.288ZM292.32 15.576C288.984 15.576 286.608 12.864 286.608 9.6V9.552C286.608 6.288 288.936 3.624 292.272 3.624C295.608 3.624 297.984 6.336 297.984 9.6V9.648C297.984 12.912 295.656 15.576 292.32 15.576ZM307.935 18H310.887V1.2H307.935V18ZM318.504 18H321.408V6.048L330.672 18H333.144V1.2H330.24V12.816L321.24 1.2H318.504V18ZM348.553 18.288C351.529 18.288 353.905 17.088 355.561 15.672V8.616H348.409V11.184H352.705V14.328C351.673 15.096 350.233 15.6 348.649 15.6C345.217 15.6 342.937 13.056 342.937 9.6V9.552C342.937 6.336 345.289 3.624 348.385 3.624C350.521 3.624 351.793 4.32 353.089 5.424L354.961 3.192C353.233 1.728 351.433 0.912 348.505 0.912C343.441 0.912 339.841 4.896 339.841 9.6V9.648C339.841 14.544 343.297 18.288 348.553 18.288ZM6.12047 47.12H8.66447L12.7925 35.048L16.9205 47.12H19.4645L25.3205 30.2H22.2245L18.2165 42.656L14.0885 30.152H11.5925L7.46447 42.656L3.45647 30.2H0.264467L6.12047 47.12ZM31.4695 47H44.0455V44.36H34.4215V39.848H42.8455V37.208H34.4215V32.84H43.9255V30.2H31.4695V47ZM50.6677 47H63.2437V44.36H53.6197V39.848H62.0437V37.208H53.6197V32.84H63.1237V30.2H50.6677V47ZM69.8658 47H72.8178V42.128L75.4338 39.44L81.1698 47H84.7458L77.4498 37.424L84.4338 30.2H80.8098L72.8178 38.648V30.2H69.8658V47ZM90.3764 47H102.952V44.36H93.3284V39.848H101.752V37.208H93.3284V32.84H102.832V30.2H90.3764V47ZM109.575 47H112.479V35.048L121.743 47H124.215V30.2H121.311V41.816L112.311 30.2H109.575V47ZM131.655 47H137.919C143.199 47 146.847 43.328 146.847 38.6V38.552C146.847 33.824 143.199 30.2 137.919 30.2H131.655V47ZM134.607 44.312V32.888H137.919C141.447 32.888 143.751 35.312 143.751 38.6V38.648C143.751 41.936 141.447 44.312 137.919 44.312H134.607ZM163.864 47H166.768V35L172.024 42.872H172.12L177.424 34.952V47H180.376V30.2H177.232L172.12 38.144L167.008 30.2H163.864V47ZM186.38 47H189.404L191.132 42.944H199.076L200.78 47H203.9L196.508 30.08H193.772L186.38 47ZM192.212 40.328L195.092 33.608L197.996 40.328H192.212ZM210.069 47H213.021V30.2H210.069V47ZM220.638 47H223.542V35.048L232.806 47H235.278V30.2H232.374V41.816L223.374 30.2H220.638V47ZM246.847 47H249.823V32.936H255.151V30.2H241.519V32.936H246.847V47ZM261.402 47H273.978V44.36H264.354V39.848H272.778V37.208H264.354V32.84H273.858V30.2H261.402V47ZM280.6 47H283.504V35.048L292.768 47H295.24V30.2H292.336V41.816L283.336 30.2H280.6V47ZM301.241 47H304.265L305.993 42.944H313.937L315.641 47H318.761L311.369 30.08H308.633L301.241 47ZM307.073 40.328L309.953 33.608L312.857 40.328H307.073ZM324.762 47H327.666V35.048L336.93 47H339.402V30.2H336.498V41.816L327.498 30.2H324.762V47ZM354.643 47.288C357.787 47.288 359.707 46.136 361.459 44.312L359.563 42.392C358.123 43.736 356.803 44.576 354.739 44.576C351.523 44.576 349.195 41.888 349.195 38.6V38.552C349.195 35.264 351.523 32.624 354.739 32.624C356.659 32.624 358.099 33.464 359.443 34.712L361.339 32.528C359.731 30.992 357.859 29.912 354.763 29.912C349.675 29.912 346.099 33.824 346.099 38.6V38.648C346.099 43.472 349.747 47.288 354.643 47.288ZM367.681 47H380.257V44.36H370.633V39.848H379.057V37.208H370.633V32.84H380.137V30.2H367.681V47Z" fill="white"/>
</svg>
