<svg width="18" height="18" viewBox="0 0 18 18" fill="none" xmlns="http://www.w3.org/2000/svg">
<path d="M4.5 2.43457C4.5 3.02637 4.29199 3.51855 3.87598 3.91113C3.45996 4.30371 2.91211 4.5 2.23242 4.5H2.20605C1.55566 4.5 1.02539 4.30371 0.615234 3.91113C0.205078 3.5127 0 3.02051 0 2.43457C0 1.84277 0.208008 1.35352 0.624023 0.966797C1.0459 0.574219 1.59375 0.37793 2.26758 0.37793C2.92969 0.37793 3.46289 0.574219 3.86719 0.966797C4.27734 1.35352 4.48828 1.84277 4.5 2.43457ZM0.37793 6.37207H4.12207V18H0.37793V6.37207ZM10.125 11.25V18H6.37207V9C6.33105 7.51172 6.31055 6.63574 6.31055 6.37207H10.002L10.125 7.98047C10.5234 7.37695 11.0068 6.89648 11.5752 6.53906C12.1436 6.18164 12.7852 6.00293 13.5 6.00293C14.8477 6.00293 15.9346 6.46582 16.7607 7.3916C17.5869 8.31152 18 9.59766 18 11.25V18H14.2471V11.6279C14.2471 10.7373 14.0566 10.0781 13.6758 9.65039C13.3008 9.2168 12.8115 9 12.208 9C11.6104 9 11.1123 9.19629 10.7139 9.58887C10.3213 9.97559 10.125 10.5293 10.125 11.25Z" fill="white"/>
</svg>
