<svg width="18" height="18" viewBox="0 0 18 18" fill="none" xmlns="http://www.w3.org/2000/svg">
<path d="M16.875 0C17.1797 0 17.4434 0.111328 17.666 0.333984C17.8887 0.556641 18 0.820312 18 1.125V16.875C18 17.1797 17.8887 17.4434 17.666 17.666C17.4434 17.8887 17.1797 18 16.875 18H12.375V11.0039H14.625L15.0029 8.41113H12.375V6.37207C12.375 5.99707 12.4688 5.70996 12.6562 5.51074C12.8496 5.31152 13.1309 5.21191 13.5 5.21191H15.1875V2.87402C14.6836 2.79199 14.0684 2.75098 13.3418 2.75098C12.1348 2.75098 11.2119 3.05859 10.5732 3.67383C9.94043 4.2832 9.62402 5.11523 9.62402 6.16992V8.41113H7.37402V11.0039H9.62402V18H1.125C0.820312 18 0.556641 17.8887 0.333984 17.666C0.111328 17.4434 0 17.1797 0 16.875V1.125C0 0.820312 0.111328 0.556641 0.333984 0.333984C0.556641 0.111328 0.820312 0 1.125 0H16.875Z" fill="white"/>
</svg>
