<?xml version="1.0" encoding="UTF-8" standalone="no"?><!DOCTYPE svg PUBLIC "-//W3C//DTD SVG 1.1//EN" "http://www.w3.org/Graphics/SVG/1.1/DTD/svg11.dtd"><svg width="100%" height="100%" viewBox="0 0 18 18" version="1.1" xmlns="http://www.w3.org/2000/svg" xmlns:xlink="http://www.w3.org/1999/xlink" xml:space="preserve" xmlns:serif="http://www.serif.com/" style="fill-rule:evenodd;clip-rule:evenodd;stroke-linejoin:round;stroke-miterlimit:2;"><path id="Combined-Shape" d="M15.03,0c1.017,0 1.845,0.828 1.845,1.854l0,16.146l-1.935,-1.71l-1.089,-1.008l-1.152,-1.071l0.477,1.665l-10.206,0c-1.017,0 -1.845,-0.828 -1.845,-1.854l0,-12.168c0,-1.026 0.828,-1.854 1.845,-1.854l12.06,0Zm-7.407,4.194c0,0 -1.233,-0.027 -2.529,0.945c0,0 -1.296,2.349 -1.296,5.247c0,0 0.756,1.305 2.745,1.368c0,0 0.333,-0.405 0.603,-0.747c-1.143,-0.342 -1.575,-1.062 -1.575,-1.062c0,0 0.09,0.063 0.252,0.153c0.009,0.009 0.018,0.018 0.036,0.027c0.027,0.018 0.054,0.027 0.081,0.045c0.225,0.126 0.45,0.225 0.657,0.306c0.369,0.144 0.81,0.288 1.323,0.387c0.675,0.126 1.467,0.171 2.331,0.009c0.423,-0.072 0.855,-0.198 1.305,-0.387c0.315,-0.117 0.666,-0.288 1.035,-0.531c0,0 -0.45,0.738 -1.629,1.071c0.27,0.342 0.594,0.729 0.594,0.729c1.989,-0.063 2.754,-1.368 2.754,-1.368c0,-2.898 -1.296,-5.247 -1.296,-5.247c-1.198,-0.898 -2.341,-0.943 -2.508,-0.945l-0.021,0l-0.126,0.144c1.484,0.454 2.198,1.103 2.239,1.141l0.002,0.002c-0.936,-0.513 -1.854,-0.765 -2.709,-0.864c-0.648,-0.072 -1.269,-0.054 -1.818,0.018c-0.054,0 -0.099,0.009 -0.153,0.018c-0.315,0.027 -1.08,0.144 -2.043,0.567c-0.333,0.153 -0.531,0.261 -0.531,0.261c0,0 0.747,-0.711 2.367,-1.179l-0.09,-0.108Zm-0.252,3.357c0.513,0 0.927,0.45 0.918,0.999c0,0.549 -0.405,0.999 -0.918,0.999c-0.504,0 -0.918,-0.45 -0.918,-0.999c0,-0.549 0.405,-0.999 0.918,-0.999Zm3.285,0c0.513,0 0.918,0.45 0.918,0.999c0,0.549 -0.405,0.999 -0.918,0.999c-0.504,0 -0.918,-0.45 -0.918,-0.999c0,-0.549 0.405,-0.999 0.918,-0.999Z" style="fill:#fff;"/></svg>