<svg width="18" height="16" viewBox="0 0 18 16" fill="none" xmlns="http://www.w3.org/2000/svg">
<path d="M18 2.22559C17.5078 2.96973 16.8955 3.6084 16.1631 4.1416V4.625C16.1631 5.44531 16.0576 6.27148 15.8467 7.10352C15.6416 7.92969 15.3428 8.73535 14.9502 9.52051C14.5635 10.2998 14.0654 11.0293 13.4561 11.709C12.8467 12.3887 12.1641 12.9834 11.4082 13.4932C10.6523 13.9971 9.7793 14.3955 8.78906 14.6885C7.80469 14.9814 6.76465 15.1279 5.66895 15.1279C3.44824 15.1279 1.55859 14.627 0 13.625C0.269531 13.666 0.5625 13.6865 0.878906 13.6865C1.69922 13.6865 2.50195 13.5283 3.28711 13.2119C4.07227 12.8955 4.7959 12.4707 5.45801 11.9375C4.66699 11.9316 3.95215 11.6885 3.31348 11.208C2.68066 10.7217 2.25 10.1094 2.02148 9.37109C2.26758 9.41797 2.49609 9.44141 2.70703 9.44141C3.04688 9.44141 3.375 9.39746 3.69141 9.30957C2.8418 9.13965 2.13574 8.71777 1.57324 8.04395C1.01074 7.36426 0.729492 6.5791 0.729492 5.68848V5.64453C1.25684 5.93164 1.81348 6.08398 2.39941 6.10156C1.88965 5.76172 1.48535 5.32227 1.18652 4.7832C0.893555 4.24414 0.74707 3.66406 0.74707 3.04297C0.74707 2.43945 0.914062 1.8418 1.24805 1.25C2.17383 2.375 3.29297 3.26855 4.60547 3.93066C5.91797 4.58691 7.33301 4.95605 8.85059 5.03809C8.79785 4.80957 8.77148 4.52539 8.77148 4.18555C8.77148 3.16602 9.12891 2.29883 9.84375 1.58398C10.5645 0.863281 11.4346 0.50293 12.4541 0.50293C13.5029 0.50293 14.4082 0.889648 15.1699 1.66309C16.0078 1.49316 16.7842 1.19434 17.499 0.766602C17.2178 1.65723 16.6758 2.33984 15.873 2.81445C16.6055 2.73242 17.3145 2.53613 18 2.22559Z" fill="white"/>
</svg>
