<svg width="281" height="129" viewBox="0 0 281 129" fill="none" xmlns="http://www.w3.org/2000/svg">
<path d="M278.249 97.536V98.0118H277.533V99.8821H277.015V98.0118H276.299V97.536H278.249ZM279.822 98.528L280.441 97.536H281V99.8821H280.485V98.351L279.822 99.3527H279.809L279.153 98.3607V99.8821H278.646V97.536H279.205L279.822 98.528Z" fill="white"/>
<path fill-rule="evenodd" clip-rule="evenodd" d="M267.886 97.65L252.741 112.599L237.602 97.65L234.321 100.973L250.412 116.854V127.601H255.073V116.857L271.165 100.973L267.886 97.65V97.65ZM223.787 121.567C223.51 122.605 222.747 123.281 221.498 123.592C220.386 123.868 218.857 124.059 216.914 124.161C215.526 124.196 213.752 124.196 211.603 124.161C208.441 124.126 206.894 124.111 206.967 124.111C203.458 124.111 201.062 123.885 199.78 123.435C198.389 122.915 197.503 121.862 197.124 120.269C196.88 119.163 196.758 116.757 196.758 113.054C196.758 108.59 197.002 105.63 197.485 104.179C197.904 102.862 198.927 102.049 200.561 101.739C202.386 101.407 204.586 101.207 207.139 101.129C206.889 101.155 209.326 101.167 214.466 101.167C219.952 101.167 222.989 102.031 223.58 103.764C223.752 105.665 223.839 107.258 223.839 108.538L228.527 108.486C228.457 105.476 228.301 103.52 228.059 102.621C227.363 100.06 225.522 98.3107 222.537 97.3786C220.665 96.8245 217.972 96.5461 214.466 96.5461C207.034 96.5461 202.156 96.7549 199.832 97.1707C196.775 97.6896 194.658 99.1785 193.476 101.634C192.541 103.502 192.072 106.184 192.072 109.679V113.158C192.072 119.593 192.975 123.781 194.778 125.72C196.653 127.76 200.785 128.781 207.174 128.781H215.246C219.693 128.781 222.779 128.349 224.517 127.483C227.086 126.239 228.493 123.677 228.735 119.802C228.805 118.347 228.857 117.259 228.891 116.531L224.204 116.374C224.134 119.213 223.997 120.943 223.787 121.567V121.567ZM136.505 97.3372H129.163C128.296 97.3372 127.635 97.702 127.183 98.4279L114.478 118.567L101.508 98.4279C101.057 97.702 100.396 97.3372 99.5281 97.3372H92.2371C90.6761 97.3372 89.8955 98.1169 89.8955 99.6728V127.601H94.5311V102.009H98.2296L112.498 124.174C113.055 125.039 113.712 125.47 114.478 125.47C115.206 125.47 115.865 125.021 116.455 124.122L130.465 102.009H134.163V127.601H138.852V99.6728C138.852 98.1169 138.068 97.339 136.505 97.339V97.3372V97.3372ZM174.963 114.329L167.986 102.007H164.811L157.811 114.329H174.963V114.329ZM171.32 98.5301L187.152 126.402L183.09 128.687L177.606 119.001H155.156L149.655 128.687L145.592 126.402L161.425 98.5301C161.876 97.7345 162.552 97.3346 163.454 97.3346H169.342C170.207 97.3346 170.868 97.7345 171.32 98.5301V98.5301ZM71.4965 114.329L64.5193 102.007H61.345L54.343 114.329H71.4965V114.329ZM67.8537 98.5301L83.6856 126.402L79.6238 128.687L74.1405 119.001H51.6894L46.1884 128.687L42.1257 126.402L57.9585 98.5301C58.4102 97.7345 59.0856 97.3346 59.9907 97.3346H65.8762C66.7416 97.3346 67.402 97.7345 67.8537 98.5301ZM18.4114 112.853H36.8218V117.523H36.775C36.7449 118.147 36.7096 118.895 36.6645 119.799C36.4232 123.674 35.0168 126.236 32.448 127.482C30.7101 128.346 27.6206 128.779 23.1769 128.779H15.1044C8.71508 128.779 4.58605 127.757 2.70849 125.717C0.902535 123.778 0 119.591 0 113.156V109.679C0 106.183 0.471157 103.501 1.4064 101.631C2.58827 99.1759 4.70538 97.687 7.76039 97.1681C10.087 96.7531 14.9648 96.5443 22.3963 96.5443C25.9021 96.5443 28.5929 96.8227 30.4679 97.3769C33.453 98.309 35.2935 100.059 35.9891 102.618C36.2314 103.517 36.3878 105.474 36.4576 108.484L31.7699 108.536C31.7699 107.256 31.6824 105.663 31.5101 103.762C30.9196 102.029 27.8822 101.164 22.3963 101.164C17.256 101.164 14.8198 101.152 15.0691 101.127C12.5162 101.204 10.3142 101.406 8.48878 101.736C6.85785 102.046 5.8351 102.859 5.41609 104.176C4.92991 105.63 4.68859 108.588 4.68859 113.052C4.68859 116.755 4.81057 119.161 5.0519 120.266C5.43377 121.859 6.31863 122.914 7.71089 123.433C8.99264 123.883 11.3891 124.107 14.8976 124.107C14.8251 124.107 16.3712 124.123 19.5305 124.159C21.6829 124.193 23.4535 124.193 24.8423 124.159C26.787 124.056 28.3163 123.865 29.4257 123.587C30.6774 123.276 31.4402 122.603 31.7169 121.564C31.8972 121.029 32.0236 119.68 32.0988 117.523H18.4114V112.853V112.853Z" fill="white"/>
<path d="M135.582 77.7462C156.507 77.7462 173.471 60.8398 173.471 39.9846C173.471 19.1294 156.507 2.22293 135.582 2.22293C114.656 2.22293 97.6929 19.1294 97.6929 39.9846C97.6929 60.8398 114.656 77.7462 135.582 77.7462Z" fill="url(#paint0_linear)"/>
<path fill-rule="evenodd" clip-rule="evenodd" d="M103.714 60.4312L142.329 77.1685C140.393 77.5157 138.408 77.7165 136.383 77.7588L107.339 65.1701C106.01 63.6909 104.797 62.1069 103.714 60.4312V60.4312ZM100.712 54.7981L148.5 75.5105C147.164 75.9942 145.792 76.4056 144.39 76.7386L102.62 58.634C101.914 57.397 101.277 56.1169 100.712 54.7981V54.7981ZM98.9535 49.7032L153.43 73.315C152.413 73.8586 151.367 74.3573 150.296 74.8074L99.9992 53.0078C99.6014 51.9286 99.2522 50.8265 98.9535 49.7032V49.7032ZM98.0138 44.9643L157.547 70.7672C156.744 71.338 155.918 71.8781 155.071 72.3864L98.515 47.8734C98.3108 46.9166 98.1437 45.9457 98.0138 44.9643V44.9643ZM97.6929 40.4923L161.048 67.9523C160.408 68.5329 159.747 69.0915 159.067 69.628L97.814 43.0789C97.7442 42.2243 97.7044 41.3618 97.6929 40.4923V40.4923ZM97.8768 36.2397L164.043 64.9182C163.532 65.497 163.004 66.0599 162.459 66.607L97.7177 38.5461C97.7477 37.7709 97.8008 37.0017 97.8768 36.2397V36.2397ZM98.5062 32.18L166.592 61.6902C166.19 62.2602 165.773 62.8187 165.341 63.3649L98.1305 34.2345C98.2374 33.5429 98.3621 32.8584 98.5062 32.18V32.18ZM99.5484 28.2992L168.733 58.2859C168.424 58.841 168.101 59.3872 167.765 59.9255L99.003 30.122C99.17 29.5079 99.3521 28.9 99.5484 28.2992V28.2992ZM100.986 24.5893L170.482 54.7117C170.254 55.2474 170.014 55.7768 169.762 56.3002L100.308 26.1962C100.522 25.6544 100.748 25.1187 100.986 24.5893V24.5893ZM102.81 21.0476L171.843 50.9683C171.687 51.4819 171.52 51.9903 171.343 52.4942L102.03 22.4519C102.28 21.978 102.541 21.5102 102.81 21.0476V21.0476ZM105.029 17.6769L172.807 47.054C172.715 47.5412 172.612 48.0249 172.502 48.5059L104.172 18.8892C104.449 18.4795 104.736 18.0751 105.029 17.6769V17.6769ZM107.661 14.4859L173.353 42.9582C173.317 43.4163 173.273 43.8727 173.221 44.3264L106.747 15.5149C107.046 15.1669 107.351 14.8233 107.661 14.4859V14.4859ZM110.749 11.4914L173.443 38.6651C173.458 39.0888 173.466 39.5153 173.467 39.9425L109.796 12.3451C110.109 12.0552 110.427 11.7706 110.749 11.4914V11.4914ZM114.36 8.72412L173.013 34.1455C173.074 34.5376 173.129 34.9314 173.178 35.3261L113.381 9.40866C113.703 9.1752 114.03 8.94702 114.36 8.72412V8.72412ZM118.616 6.23616L171.933 29.3458C172.039 29.7035 172.14 30.0638 172.235 30.4268L117.619 6.7542C117.948 6.57711 118.281 6.40444 118.616 6.23616V6.23616ZM123.744 4.12616L169.977 24.1655C170.128 24.4906 170.275 24.8174 170.416 25.1478L122.724 4.4768C123.062 4.35522 123.401 4.23804 123.744 4.12616V4.12616ZM130.253 2.61523L166.638 18.3852C166.846 18.6821 167.05 18.9817 167.25 19.2847L129.176 2.78262C129.534 2.72183 129.892 2.66545 130.253 2.61523V2.61523ZM138.564 2.35974C139.036 2.39674 139.507 2.44256 139.974 2.4963L160.079 11.2103C160.441 11.516 160.796 11.8288 161.146 12.1477L138.564 2.35974V2.35974Z" fill="#1F2428"/>
<path fill-rule="evenodd" clip-rule="evenodd" d="M135.59 0C113.465 0 95.4624 17.9408 95.4624 39.9924C95.4624 62.0448 113.465 79.9865 135.59 79.9865C157.719 79.9865 175.719 62.0448 175.719 39.9924C175.719 17.9408 157.719 0 135.59 0V0ZM135.59 75.6158C115.882 75.6158 99.8478 59.6352 99.8478 39.9924C99.8478 20.3495 115.882 4.36979 135.59 4.36979C155.299 4.36979 171.335 20.3495 171.335 39.9924C171.335 59.6352 155.299 75.6158 135.59 75.6158ZM158.167 40.2707V45.0123H158.118C158.088 45.6458 158.052 46.4043 158.008 47.3223C157.761 51.2569 156.335 53.8558 153.726 55.1192C151.964 55.9976 148.827 56.4372 144.316 56.4372H141.349C135.969 62.4677 130.492 65.7706 126.14 65.7706C124.8 65.7706 123.565 65.4578 122.474 64.8164C117.993 62.1831 117.369 54.6091 120.251 45.6035C119.468 44.8758 118.977 43.8432 118.977 42.6926C118.977 40.4928 120.766 38.7087 122.974 38.7087C122.993 38.7087 123.011 38.7105 123.029 38.7105C123.758 37.2031 124.57 35.6825 125.47 34.1601C133.449 20.6719 144.636 13.0072 150.935 16.7074C153.61 18.28 155 21.6216 154.936 26.2249H154.935C156.11 27.1737 156.914 28.3869 157.321 29.8819C157.568 30.7964 157.726 32.7796 157.797 35.8358L153.039 35.8886C153.039 34.59 152.95 32.9734 152.776 31.0422C152.175 29.2855 149.092 28.4071 143.524 28.4071C140.87 28.4071 136.517 28.4036 132.907 28.3974C131.195 30.4837 129.504 32.8826 127.903 35.59C127.071 36.9969 126.326 38.3845 125.658 39.7448C126.464 40.4743 126.973 41.5227 126.973 42.6926C126.973 44.8934 125.182 46.6774 122.974 46.6774C122.931 46.6774 122.889 46.6721 122.846 46.6704C122.306 48.3698 121.92 49.9768 121.661 51.4815C122.944 51.6243 124.578 51.6965 126.567 51.6965C126.495 51.6965 137.408 51.7132 140.616 51.7485C142.8 51.7837 144.598 51.7837 146.008 51.7485C147.981 51.6428 149.531 51.4498 150.659 51.1688C151.928 50.8525 152.703 50.1671 152.986 49.1152C153.167 48.5725 153.295 47.2025 153.373 45.0123H133.868V40.2707H158.167V40.2707ZM126.778 56.4372C124.717 56.4372 122.89 56.3306 121.292 56.1218C121.39 59.2176 122.298 61.4457 123.909 62.3919C126.88 64.1381 132.141 61.7629 137.475 56.4372H126.778V56.4372ZM116.944 31.4625C116.451 32.939 116.205 35.9415 116.205 40.4734C116.205 44.2317 116.328 46.673 116.575 47.7963C116.71 48.3663 116.916 48.865 117.179 49.3002C116.816 51.3512 116.672 53.27 116.752 55.0073C115.663 54.5545 114.809 53.9959 114.195 53.3281C112.363 51.3617 111.447 47.1109 111.447 40.5773V37.048C111.447 33.5011 111.923 30.7788 112.874 28.882C114.073 26.3879 116.223 24.8769 119.323 24.3501C120.55 24.1316 124.999 23.9695 130.047 23.8638C128.831 25.2434 127.637 26.7526 126.484 28.3781C124.001 28.4635 121.853 28.6626 120.063 28.9868C118.407 29.3022 117.367 30.1277 116.944 31.4625V31.4625ZM149.501 19.1319C150.98 20.0023 151.865 21.9652 152.068 24.6884C151.948 24.6479 151.84 24.5994 151.718 24.5607C149.814 23.9995 147.083 23.7175 143.524 23.7175C141.743 23.7175 139.584 23.7299 137.296 23.7537C142.26 19.2693 146.899 17.6034 149.501 19.1319V19.1319Z" fill="white"/>
<defs>
<linearGradient id="paint0_linear" x1="147.594" y1="10.4199" x2="123.256" y2="69.1367" gradientUnits="userSpaceOnUse">
<stop stop-color="#29ABE2"/>
<stop offset="1" stop-color="#EB078C"/>
</linearGradient>
</defs>
</svg>
