<svg width="207" height="36" viewBox="0 0 207 36" fill="none" xmlns="http://www.w3.org/2000/svg">
<path d="M5.16578 13.09H7.07378L10.1698 4.036L13.2658 13.09H15.1738L19.5658 0.399999H17.2438L14.2378 9.742L11.1418 0.364H9.26978L6.17378 9.742L3.16778 0.399999H0.773778L5.16578 13.09ZM24.1776 13H33.6096V11.02H26.3916V7.636H32.7096V5.656H26.3916V2.38H33.5196V0.399999H24.1776V13ZM49.7327 13.09H51.6407L54.7367 4.036L57.8327 13.09H59.7407L64.1327 0.399999H61.8107L58.8047 9.742L55.7087 0.364H53.8367L50.7407 9.742L47.7347 0.399999H45.3407L49.7327 13.09ZM68.8705 13H71.0845V0.399999H68.8705V13ZM76.7973 13H85.6353V10.984H79.0113V0.399999H76.7973V13ZM90.2819 13H99.1199V10.984H92.4959V0.399999H90.2819V13ZM111.503 13H117.335C120.143 13 121.997 11.794 121.997 9.544V9.508C121.997 7.798 120.971 6.952 119.495 6.448C120.431 5.962 121.295 5.152 121.295 3.64V3.604C121.295 2.758 121.007 2.074 120.449 1.516C119.729 0.795999 118.595 0.399999 117.155 0.399999H111.503V13ZM113.681 5.71V2.362H116.867C118.289 2.362 119.081 2.974 119.081 3.964V4C119.081 5.152 118.127 5.71 116.705 5.71H113.681ZM113.681 11.038V7.582H117.191C118.937 7.582 119.783 8.212 119.783 9.274V9.31C119.783 10.444 118.865 11.038 117.353 11.038H113.681ZM126.833 13H136.265V11.02H129.047V7.636H135.365V5.656H129.047V2.38H136.175V0.399999H126.833V13ZM148.968 13H154.8C157.608 13 159.462 11.794 159.462 9.544V9.508C159.462 7.798 158.436 6.952 156.96 6.448C157.896 5.962 158.76 5.152 158.76 3.64V3.604C158.76 2.758 158.472 2.074 157.914 1.516C157.194 0.795999 156.06 0.399999 154.62 0.399999H148.968V13ZM151.146 5.71V2.362H154.332C155.754 2.362 156.546 2.974 156.546 3.964V4C156.546 5.152 155.592 5.71 154.17 5.71H151.146ZM151.146 11.038V7.582H154.656C156.402 7.582 157.248 8.212 157.248 9.274V9.31C157.248 10.444 156.33 11.038 154.818 11.038H151.146ZM163.218 13H165.486L166.782 9.958H172.74L174.018 13H176.358L170.814 0.309999H168.762L163.218 13ZM167.592 7.996L169.752 2.956L171.93 7.996H167.592ZM185.936 13.216C188.294 13.216 189.734 12.352 191.048 10.984L189.626 9.544C188.546 10.552 187.556 11.182 186.008 11.182C183.596 11.182 181.85 9.166 181.85 6.7V6.664C181.85 4.198 183.596 2.218 186.008 2.218C187.448 2.218 188.528 2.848 189.536 3.784L190.958 2.146C189.752 0.993999 188.348 0.184 186.026 0.184C182.21 0.184 179.528 3.118 179.528 6.7V6.736C179.528 10.354 182.264 13.216 185.936 13.216ZM195.715 13H197.929V9.346L199.891 7.33L204.193 13H206.875L201.403 5.818L206.641 0.399999H203.923L197.929 6.736V0.399999H195.715V13ZM36.2484 35.216C40.1184 35.216 42.8544 32.246 42.8544 28.7V28.664C42.8544 25.118 40.1544 22.184 36.2844 22.184C32.4144 22.184 29.6784 25.154 29.6784 28.7V28.736C29.6784 32.282 32.3784 35.216 36.2484 35.216ZM36.2844 33.182C33.7824 33.182 32.0004 31.148 32.0004 28.7V28.664C32.0004 26.216 33.7464 24.218 36.2484 24.218C38.7504 24.218 40.5324 26.252 40.5324 28.7V28.736C40.5324 31.184 38.7864 33.182 36.2844 33.182ZM47.8694 35H50.0474V26.036L56.9954 35H58.8494V22.4H56.6714V31.112L49.9214 22.4H47.8694V35ZM64.4301 35H73.2681V32.984H66.6441V22.4H64.4301V35ZM78.0406 35H80.2546V22.4H78.0406V35ZM85.9675 35H88.1455V26.036L95.0935 35H96.9475V22.4H94.7695V31.112L88.0195 22.4H85.9675V35ZM102.528 35H111.96V33.02H104.742V29.636H111.06V27.656H104.742V24.38H111.87V22.4H102.528V35ZM129.073 35.18C131.719 35.18 133.573 33.776 133.573 31.418V31.382C133.573 29.294 132.187 28.34 129.523 27.692C127.111 27.116 126.535 26.684 126.535 25.712V25.676C126.535 24.848 127.291 24.182 128.587 24.182C129.739 24.182 130.873 24.632 132.007 25.478L133.195 23.804C131.917 22.778 130.459 22.22 128.623 22.22C126.121 22.22 124.321 23.714 124.321 25.874V25.91C124.321 28.232 125.833 29.024 128.515 29.672C130.855 30.212 131.359 30.698 131.359 31.598V31.634C131.359 32.588 130.495 33.218 129.127 33.218C127.561 33.218 126.355 32.624 125.149 31.58L123.817 33.164C125.329 34.514 127.147 35.18 129.073 35.18ZM144.529 35.216C148.399 35.216 151.135 32.246 151.135 28.7V28.664C151.135 25.118 148.435 22.184 144.565 22.184C140.695 22.184 137.959 25.154 137.959 28.7V28.736C137.959 32.282 140.659 35.216 144.529 35.216ZM144.565 33.182C142.063 33.182 140.281 31.148 140.281 28.7V28.664C140.281 26.216 142.027 24.218 144.529 24.218C147.031 24.218 148.813 26.252 148.813 28.7V28.736C148.813 31.184 147.067 33.182 144.565 33.182ZM162.162 35.216C166.032 35.216 168.768 32.246 168.768 28.7V28.664C168.768 25.118 166.068 22.184 162.198 22.184C158.328 22.184 155.592 25.154 155.592 28.7V28.736C155.592 32.282 158.292 35.216 162.162 35.216ZM162.198 33.182C159.696 33.182 157.914 31.148 157.914 28.7V28.664C157.914 26.216 159.66 24.218 162.162 24.218C164.664 24.218 166.446 26.252 166.446 28.7V28.736C166.446 31.184 164.7 33.182 162.198 33.182ZM173.783 35H175.961V26.036L182.909 35H184.763V22.4H182.585V31.112L175.835 22.4H173.783V35Z" fill="white"/>
</svg>
