<svg width="145" height="11" viewBox="0 0 145 11" fill="none" xmlns="http://www.w3.org/2000/svg">
<path d="M5.34769 10.168C7.08369 10.168 8.46969 9.468 9.43569 8.642V4.526H5.26369V6.024H7.76969V7.858C7.16769 8.306 6.32769 8.6 5.40369 8.6C3.40169 8.6 2.07169 7.116 2.07169 5.1V5.072C2.07169 3.196 3.44369 1.614 5.24969 1.614C6.49569 1.614 7.23769 2.02 7.99369 2.664L9.08569 1.362C8.07769 0.508 7.02769 0.0319998 5.31969 0.0319998C2.36569 0.0319998 0.26569 2.356 0.26569 5.1V5.128C0.26569 7.984 2.28169 10.168 5.34769 10.168ZM18.1742 10.168C21.1842 10.168 23.3122 7.858 23.3122 5.1V5.072C23.3122 2.314 21.2122 0.0319998 18.2022 0.0319998C15.1922 0.0319998 13.0642 2.342 13.0642 5.1V5.128C13.0642 7.886 15.1642 10.168 18.1742 10.168ZM18.2022 8.586C16.2562 8.586 14.8702 7.004 14.8702 5.1V5.072C14.8702 3.168 16.2282 1.614 18.1742 1.614C20.1202 1.614 21.5062 3.196 21.5062 5.1V5.128C21.5062 7.032 20.1482 8.586 18.2022 8.586ZM26.3442 10H28.2062V8.082H26.3442V10ZM38.2492 10H39.9712V6.01H44.9132V4.442H39.9712V1.768H45.5432V0.199999H38.2492V10ZM49.3547 10H51.0767V0.199999H49.3547V10ZM55.5201 10H57.2141V3.028L62.6181 10H64.0601V0.199999H62.3661V6.976L57.1161 0.199999H55.5201V10ZM68.4006 10H72.0546C75.1346 10 77.2626 7.858 77.2626 5.1V5.072C77.2626 2.314 75.1346 0.199999 72.0546 0.199999H68.4006V10ZM70.1226 8.432V1.768H72.0546C74.1126 1.768 75.4566 3.182 75.4566 5.1V5.128C75.4566 7.046 74.1126 8.432 72.0546 8.432H70.1226ZM80.3032 10H82.1652V8.082H80.3032V10ZM96.8563 10.168C98.5923 10.168 99.9783 9.468 100.944 8.642V4.526H96.7723V6.024H99.2783V7.858C98.6763 8.306 97.8363 8.6 96.9123 8.6C94.9103 8.6 93.5803 7.116 93.5803 5.1V5.072C93.5803 3.196 94.9523 1.614 96.7583 1.614C98.0043 1.614 98.7463 2.02 99.5023 2.664L100.594 1.362C99.5863 0.508 98.5363 0.0319998 96.8283 0.0319998C93.8743 0.0319998 91.7743 2.356 91.7743 5.1V5.128C91.7743 7.984 93.7903 10.168 96.8563 10.168ZM104.167 10H105.931L106.939 7.634H111.573L112.567 10H114.387L110.075 0.129999H108.479L104.167 10ZM107.569 6.108L109.249 2.188L110.943 6.108H107.569ZM117.887 10H119.581V3L122.647 7.592H122.703L125.797 2.972V10H127.519V0.199999H125.685L122.703 4.834L119.721 0.199999H117.887V10ZM131.862 10H139.198V8.46H133.584V5.828H138.498V4.288H133.584V1.74H139.128V0.199999H131.862V10ZM142.753 10H144.615V8.082H142.753V10Z" fill="white" fill-opacity="0.5"/>
</svg>
